<svg xmlns="http://www.w3.org/2000/svg" xmlns:xlink="http://www.w3.org/1999/xlink" viewBox="0 0 36 36"><defs><style>.a{fill:url(#a);}.b{fill:#fff;}</style><linearGradient id="a" x1="30.73" y1="5.27" x2="5.27" y2="30.73" gradientUnits="userSpaceOnUse"><stop offset="0" stop-color="#ffe0b2"/><stop offset="1" stop-color="#ffa726"/></linearGradient></defs><circle class="a" cx="18" cy="18" r="18"/><path class="b" d="M657.56,402.49h1.66a1.65,1.65,0,0,0,1.63-1.46l1.65-16.48h-5V380.5h-2v4.05h-5l.3,2.34a10.25,10.25,0,0,1,4.27,2.26,6.91,6.91,0,0,1,2.43,5.29Zm-17.06-1v-1h15v1a1,1,0,0,1-1,1h-13A1,1,0,0,1,640.5,401.49Zm15-7c0-8-15-8-15,0Zm-15,2h15v2h-15Z" transform="translate(-634 -373)"/></svg>