<svg xmlns="http://www.w3.org/2000/svg" xmlns:xlink="http://www.w3.org/1999/xlink" viewBox="0 0 36 36"><defs><style>.a{fill:url(#a);}.b{fill:#fff;}</style><linearGradient id="a" x1="30.73" y1="5.27" x2="5.27" y2="30.73" gradientUnits="userSpaceOnUse"><stop offset="0" stop-color="#c8e6c9"/><stop offset="1" stop-color="#66bb6a"/></linearGradient></defs><circle class="a" cx="18" cy="18" r="18"/><path class="b" d="M534.8,564.9c-2.27-.59-3-1.2-3-2.15s1-1.85,2.7-1.85,2.44.85,2.5,2.1h2.21a4,4,0,0,0-3.21-3.81V557h-3v2.16c-1.94.42-3.5,1.68-3.5,3.61,0,2.31,1.91,3.46,4.7,4.13,2.5.6,3,1.48,3,2.41,0,.69-.49,1.79-2.7,1.79-2.06,0-2.87-.92-3-2.1h-2.2c.12,2.19,1.76,3.42,3.68,3.83V575h3v-2.15c2-.37,3.5-1.5,3.5-3.55C539.5,566.46,537.07,565.49,534.8,564.9Z" transform="translate(-516 -548)"/></svg>