<svg xmlns="http://www.w3.org/2000/svg" xmlns:xlink="http://www.w3.org/1999/xlink" viewBox="0 0 36 36"><defs><style>.a{fill:url(#a);}.b{fill:#fff;}</style><linearGradient id="a" x1="30.73" y1="5.27" x2="5.27" y2="30.73" gradientUnits="userSpaceOnUse"><stop offset="0" stop-color="#bbdefb"/><stop offset="1" stop-color="#42a5f5"/></linearGradient></defs><circle class="a" cx="18" cy="18" r="18"/><circle class="b" cx="10.07" cy="14.96" r="2.5"/><circle class="b" cx="14.57" cy="10.96" r="2.5"/><circle class="b" cx="20.57" cy="10.96" r="2.5"/><circle class="b" cx="25.07" cy="14.96" r="2.5"/><path class="b" d="M550.91,486.32c-.87-1-1.6-1.89-2.48-2.91a4.24,4.24,0,0,0-1.75-1.32,2,2,0,0,0-.33-.09,5,5,0,0,0-.78,0,4.2,4.2,0,0,0-.79.05,2,2,0,0,0-.33.09,4.31,4.31,0,0,0-1.75,1.32c-.87,1-1.6,1.89-2.48,2.91-1.31,1.31-2.92,2.76-2.62,4.79a3.14,3.14,0,0,0,2.33,2.32c.73.15,3.06-.44,5.54-.44h.18c2.48,0,4.81.58,5.54.44a3.15,3.15,0,0,0,2.33-2.32C553.83,489.08,552.22,487.63,550.91,486.32Z" transform="translate(-528 -466)"/></svg>