<svg xmlns="http://www.w3.org/2000/svg" xmlns:xlink="http://www.w3.org/1999/xlink" viewBox="0 0 36 36"><defs><style>.a{fill:url(#a);}.b{fill:#fff;}</style><linearGradient id="a" x1="30.73" y1="5.27" x2="5.27" y2="30.73" gradientUnits="userSpaceOnUse"><stop offset="0" stop-color="#e1bee7"/><stop offset="1" stop-color="#ab47bc"/></linearGradient></defs><circle class="a" cx="18" cy="18" r="18"/><path class="b" d="M555.87,384.68h-2a4,4,0,1,0-8,0h-2a2,2,0,0,0-2,2v12a2,2,0,0,0,2,2h12a2,2,0,0,0,2-2v-12A2,2,0,0,0,555.87,384.68Zm-8,4a1,1,0,0,1-2,0v-2h2Zm2-6a2,2,0,0,1,2,2h-4A2,2,0,0,1,549.87,382.68Zm4,6a1,1,0,0,1-2,0v-2h2Z" transform="translate(-532 -373)"/></svg>